<svg aria-hidden="true" style="position: absolute; width: 0; height: 0; overflow: hidden;" version="1.1" xmlns="http://www.w3.org/2000/svg" xmlns:xlink="http://www.w3.org/1999/xlink">
<defs>
<symbol id="icon-eye" viewBox="0 0 32 32">
<path stroke-linejoin="round" stroke-linecap="round" stroke-miterlimit="4" stroke-width="2.3111" d="M1.333 16c0 0 5.333-10.667 14.667-10.667s14.667 10.667 14.667 10.667c0 0-5.333 10.667-14.667 10.667s-14.667-10.667-14.667-10.667z"></path>
<path stroke-linejoin="round" stroke-linecap="round" stroke-miterlimit="4" stroke-width="2.3111" d="M16 20c2.209 0 4-1.791 4-4s-1.791-4-4-4c-2.209 0-4 1.791-4 4s1.791 4 4 4z"></path>
</symbol>
<symbol id="icon-close" viewBox="0 0 32 32">
<path stroke-linejoin="round" stroke-linecap="round" stroke-miterlimit="4" stroke-width="2.6667" d="M24 8l-16 16"></path>
<path stroke-linejoin="round" stroke-linecap="round" stroke-miterlimit="4" stroke-width="2.6667" d="M8 8l16 16"></path>
</symbol>
<symbol id="icon-chevron-down" viewBox="0 0 30 32">
<path stroke-linejoin="round" stroke-linecap="round" stroke-miterlimit="4" stroke-width="2.8235" d="M7.529 12.235l7.529 7.529 7.529-7.529"></path>
</symbol>
<symbol id="icon-help-circle" viewBox="0 0 32 32">
<path stroke-linejoin="round" stroke-linecap="round" stroke-miterlimit="4" stroke-width="2.88" d="M16 29.333c7.364 0 13.333-5.97 13.333-13.333s-5.969-13.333-13.333-13.333-13.333 5.97-13.333 13.333c0 7.364 5.97 13.333 13.333 13.333z"></path>
<path stroke-linejoin="round" stroke-linecap="round" stroke-miterlimit="4" stroke-width="2.88" d="M12.12 12c0.313-0.891 0.932-1.643 1.747-2.121s1.772-0.654 2.703-0.494c0.931 0.16 1.776 0.644 2.384 1.366s0.941 1.637 0.94 2.582c0 2.667-4 4-4 4"></path>
<path stroke-linejoin="round" stroke-linecap="round" stroke-miterlimit="4" stroke-width="2.88" d="M16 22.667h0.020"></path>
</symbol>
<symbol id="icon-logo" viewBox="0 0 32 32">
<path fill="#1f1f1f" style="fill: var(--color1, #1f1f1f)" d="M24 0h-16c-4.418 0-8 3.582-8 8v16c0 4.418 3.582 8 8 8h16c4.418 0 8-3.582 8-8v-16c0-4.418-3.582-8-8-8z"></path>
<path fill="#fff" style="fill: var(--color2, #fff)" d="M13.331 23.027c0.245-1.272 0.453-2.61 0.747-3.949 0.145-0.701-0.032-0.999-0.815-0.946s-1.657 0.027-2.49 0c-0.833-0.027-0.982-0.446-0.502-1.044 2.363-2.918 4.753-5.8 7.134-8.674 0.267-0.326 0.575-0.558 1.014-0.312s0.349 0.549 0.276 0.915c-0.263 1.339-0.48 2.677-0.77 3.989-0.149 0.678 0.045 0.919 0.751 0.892 0.709-0.036 1.419-0.036 2.127 0 0.403 0 0.933-0.21 1.141 0.339s-0.231 0.781-0.453 1.107c-0.905 1.115-1.823 2.229-2.752 3.342-1.361 1.624-2.711 3.242-4.051 4.854-0.263 0.317-0.557 0.571-1.005 0.41s-0.353-0.54-0.353-0.924z"></path>
</symbol>
<symbol id="icon-bell" viewBox="0 0 32 32">
<path stroke-linejoin="round" stroke-linecap="round" stroke-miterlimit="4" stroke-width="3" d="M12.472 28c0.94 0.83 2.175 1.333 3.528 1.333s2.588-0.503 3.528-1.333M24 10.667c0-2.122-0.843-4.157-2.343-5.657s-3.535-2.343-5.657-2.343-4.157 0.843-5.657 2.343c-1.5 1.5-2.343 3.535-2.343 5.657 0 4.12-1.039 6.941-2.2 8.807-0.979 1.574-1.469 2.361-1.451 2.581 0.020 0.243 0.071 0.336 0.267 0.481 0.177 0.131 0.974 0.131 2.569 0.131h17.63c1.595 0 2.392 0 2.569-0.131 0.196-0.145 0.247-0.238 0.267-0.481 0.018-0.22-0.472-1.007-1.451-2.581-1.161-1.866-2.2-4.687-2.2-8.807z"></path>
</symbol>
<symbol id="icon-hexagon" viewBox="0 0 32 32">
<path fill="none" stroke-linejoin="round" stroke-linecap="round" stroke-miterlimit="4" stroke-width="2.6667" d="M14.964 3.242c0.378-0.21 0.567-0.315 0.767-0.356 0.177-0.036 0.36-0.036 0.537 0 0.2 0.041 0.389 0.146 0.767 0.356l9.867 5.481c0.399 0.222 0.599 0.333 0.744 0.491 0.129 0.14 0.226 0.305 0.285 0.485 0.067 0.204 0.067 0.432 0.067 0.889v10.823c0 0.457 0 0.685-0.067 0.889-0.060 0.18-0.157 0.346-0.285 0.485-0.145 0.158-0.345 0.269-0.744 0.491l-9.867 5.481c-0.378 0.21-0.567 0.315-0.767 0.356-0.177 0.036-0.36 0.036-0.537 0-0.2-0.041-0.389-0.146-0.767-0.356l-9.867-5.481c-0.399-0.222-0.599-0.333-0.744-0.491-0.129-0.14-0.226-0.305-0.286-0.485-0.067-0.204-0.067-0.432-0.067-0.889v-10.823c0-0.457 0-0.685 0.067-0.889 0.060-0.18 0.157-0.346 0.286-0.485 0.145-0.158 0.345-0.269 0.744-0.491l9.867-5.481z"></path>
</symbol>
<symbol id="icon-colors" viewBox="0 0 32 32">
<path fill="none" stroke-linejoin="round" stroke-linecap="round" stroke-miterlimit="4" stroke-width="2.6667" d="M16 27.296c1.415 1.267 3.284 2.037 5.333 2.037 4.418 0 8-3.582 8-8 0-3.689-2.497-6.795-5.893-7.72M8.56 13.614c-3.396 0.925-5.894 4.031-5.894 7.72 0 4.418 3.582 8 8 8s8-3.582 8-8c0-1.041-0.199-2.035-0.56-2.947M24 10.667c0 4.418-3.582 8-8 8s-8-3.582-8-8 3.582-8 8-8c4.418 0 8 3.582 8 8z"></path>
</symbol>
<symbol id="icon-lightning" viewBox="0 0 32 32">
<path fill="none" stroke-linejoin="round" stroke-linecap="round" stroke-miterlimit="4" stroke-width="2.6667" d="M18.999 2.667h-7.674c-0.239 0-0.359 0-0.465 0.036-0.093 0.032-0.178 0.085-0.249 0.154-0.080 0.078-0.133 0.185-0.24 0.399l-5.6 11.2c-0.256 0.511-0.383 0.767-0.353 0.974 0.027 0.181 0.127 0.344 0.277 0.449 0.172 0.12 0.458 0.12 1.029 0.12h8.274l-4 13.333 16.258-16.86c0.548-0.569 0.823-0.853 0.839-1.097 0.014-0.211-0.073-0.417-0.235-0.553-0.186-0.157-0.581-0.157-1.372-0.157h-9.49l3-8z"></path>
</symbol>
<symbol id="icon-container" viewBox="0 0 32 32">
<path fill="none" stroke-linejoin="round" stroke-linecap="round" stroke-miterlimit="4" stroke-width="2.6667" d="M27.333 9.704l-11.333 6.296M16 16l-11.333-6.296M16 16l0 12.667M28 21.411v-10.823c0-0.457 0-0.685-0.067-0.889-0.060-0.18-0.157-0.346-0.285-0.485-0.145-0.158-0.345-0.269-0.744-0.491l-9.867-5.481c-0.378-0.21-0.567-0.315-0.767-0.356-0.177-0.036-0.36-0.036-0.537 0-0.2 0.041-0.389 0.146-0.767 0.356l-9.867 5.481c-0.399 0.222-0.599 0.333-0.744 0.491-0.129 0.14-0.226 0.305-0.286 0.485-0.067 0.204-0.067 0.432-0.067 0.889v10.823c0 0.457 0 0.685 0.067 0.889 0.060 0.18 0.157 0.346 0.286 0.485 0.145 0.158 0.345 0.269 0.744 0.491l9.867 5.481c0.378 0.21 0.567 0.315 0.767 0.356 0.177 0.036 0.36 0.036 0.537 0 0.2-0.041 0.389-0.146 0.767-0.356l9.867-5.481c0.399-0.222 0.599-0.333 0.744-0.491 0.129-0.14 0.226-0.305 0.285-0.485 0.067-0.204 0.067-0.432 0.067-0.889z"></path>
</symbol>
<symbol id="icon-puzzle" viewBox="0 0 32 32">
<path fill="none" stroke-linejoin="round" stroke-linecap="round" stroke-miterlimit="4" stroke-width="2.6667" d="M16 2.667l4.8 4.8c3.2-8.4 12.133 0.533 3.733 3.733l4.8 4.8-4.8 4.8c-3.2-8.4-12.133 0.533-3.733 3.733l-4.8 4.8-4.8-4.8c-3.2 8.4-12.133-0.533-3.733-3.733l-4.8-4.8 4.8-4.8c3.2 8.4 12.133-0.533 3.733-3.733l4.8-4.8z"></path>
</symbol>
<symbol id="icon-loading" viewBox="0 0 32 32">
<path fill="none" stroke-linejoin="round" stroke-linecap="round" stroke-miterlimit="4" stroke-width="2.6667" d="M4.454 22.666c-1.67-2.893-0.821-6.58 1.944-8.453l0.003-0.003c2.221-1.501 5.143-1.45 7.312 0.126l4.576 3.327c2.167 1.576 5.090 1.627 7.312 0.126l0.003-0.003c2.766-1.872 3.616-5.563 1.943-8.453M22.669 27.546c-2.893 1.669-6.58 0.821-8.453-1.944l-0.003-0.003c-1.501-2.221-1.45-5.143 0.126-7.312l3.327-4.576c1.576-2.167 1.627-5.090 0.126-7.312l-0.006-0.003c-1.872-2.763-5.563-3.615-8.453-1.942M25.427 6.572c5.207 5.207 5.207 13.648 0 18.855s-13.648 5.207-18.855 0c-5.207-5.207-5.207-13.648 0-18.855s13.648-5.207 18.855 0z"></path>
</symbol>
<symbol id="icon-star" viewBox="0 0 32 32">
<path fill="none" stroke-linejoin="round" stroke-linecap="round" stroke-miterlimit="4" stroke-width="2.6667" d="M16 2.667l2.683 6.975c0.376 0.978 0.564 1.466 0.856 1.878 0.259 0.364 0.577 0.683 0.942 0.942 0.411 0.292 0.9 0.48 1.878 0.856l6.975 2.683-6.975 2.683c-0.978 0.376-1.466 0.564-1.878 0.856-0.364 0.259-0.683 0.577-0.942 0.942-0.292 0.411-0.48 0.9-0.856 1.878l-2.683 6.975-2.683-6.975c-0.376-0.978-0.564-1.466-0.856-1.878-0.259-0.364-0.578-0.683-0.942-0.942-0.411-0.292-0.9-0.48-1.878-0.856l-6.975-2.683 6.975-2.683c0.978-0.376 1.466-0.564 1.878-0.856 0.364-0.259 0.683-0.578 0.942-0.942 0.292-0.411 0.48-0.9 0.856-1.878l2.683-6.975z"></path>
</symbol>
<symbol id="icon-arrow" viewBox="0 0 32 32">
<path stroke-linejoin="round" stroke-linecap="round" stroke-miterlimit="4" stroke-width="2.6" d="M4.45 9.333c2.305-3.985 6.614-6.667 11.55-6.667 7.364 0 13.333 5.97 13.333 13.333s-5.97 13.333-13.333 13.333c-4.935 0-9.244-2.681-11.55-6.667"></path>
<path stroke-linejoin="round" stroke-linecap="round" stroke-miterlimit="4" stroke-width="2.6" d="M16 21.333l5.333-5.333-5.333-5.333"></path>
<path stroke-linejoin="round" stroke-linecap="round" stroke-miterlimit="4" stroke-width="2.6" d="M2.667 16h18.667"></path>
</symbol>
<symbol id="icon-pencil" viewBox="0 0 32 32">
<path stroke-linejoin="round" stroke-linecap="round" stroke-miterlimit="4" stroke-width="2.6" d="M3.333 28.667l7.399-2.846c0.473-0.182 0.71-0.273 0.931-0.392 0.197-0.106 0.384-0.227 0.56-0.364 0.199-0.154 0.378-0.333 0.736-0.692l15.040-15.040c1.473-1.473 1.473-3.861 0-5.333s-3.861-1.473-5.333 0l-15.040 15.040c-0.359 0.359-0.538 0.538-0.692 0.736-0.137 0.176-0.259 0.364-0.364 0.561-0.119 0.221-0.21 0.458-0.392 0.931l-2.846 7.399zM3.333 28.667l2.744-7.135c0.196-0.511 0.295-0.766 0.463-0.883 0.147-0.102 0.329-0.141 0.505-0.107 0.201 0.038 0.395 0.232 0.782 0.619l3.012 3.012c0.387 0.387 0.58 0.58 0.619 0.782 0.034 0.176-0.005 0.358-0.107 0.505-0.117 0.168-0.372 0.267-0.883 0.463l-7.135 2.744z"></path>
</symbol>
<symbol id="icon-trash" viewBox="0 0 32 32">
<path stroke-linejoin="round" stroke-linecap="round" stroke-miterlimit="4" stroke-width="2.6" d="M12 4h8"></path>
<path stroke-linejoin="round" stroke-linecap="round" stroke-miterlimit="4" stroke-width="2.6" d="M4 8h24"></path>
<path stroke-linejoin="round" stroke-linecap="round" stroke-miterlimit="4" stroke-width="2.6" d="M6.667 8l0.801 12.018c0.149 2.231 0.223 3.347 0.588 4.243 0.662 1.627 2.004 2.883 3.672 3.435 0.919 0.304 2.037 0.304 4.273 0.304v0c2.236 0 3.354 0 4.273-0.304 1.668-0.552 3.010-1.808 3.672-3.435 0.365-0.896 0.439-2.012 0.588-4.243l0.801-12.018"></path>
</symbol>
<symbol id="icon-filter" viewBox="0 0 32 32">
<path stroke-linejoin="round" stroke-linecap="round" stroke-miterlimit="4" stroke-width="3" d="M29.334 4h-26.667l10.667 12.613v8.72l5.333 2.667v-11.387l10.667-12.613z"></path>
</symbol>
<symbol id="icon-plus" viewBox="0 0 32 32">
<path stroke-linejoin="round" stroke-linecap="round" stroke-miterlimit="4" stroke-width="2.88" d="M16 6.667v18.667"></path>
<path stroke-linejoin="round" stroke-linecap="round" stroke-miterlimit="4" stroke-width="2.88" d="M6.666 16h18.667"></path>
</symbol>
<symbol id="icon-project" viewBox="0 0 32 32">
<path fill="none" stroke-linejoin="miter" stroke-linecap="butt" stroke-miterlimit="4" stroke-width="2.6667" d="M4.396 6.978c0.309-1.282 1.299-2.272 2.558-2.576l0.024-0.005c0.507-0.124 1.090-0.196 1.689-0.196s1.182 0.071 1.739 0.206l-0.050-0.010c1.282 0.309 2.272 1.299 2.576 2.558l0.005 0.024c0.124 0.507 0.196 1.090 0.196 1.689s-0.071 1.182-0.206 1.739l0.010-0.050c-0.309 1.282-1.299 2.272-2.558 2.576l-0.024 0.005c-0.507 0.124-1.090 0.196-1.689 0.196s-1.182-0.071-1.739-0.206l0.050 0.010c-1.282-0.309-2.272-1.299-2.577-2.558l-0.005-0.024c-0.124-0.507-0.196-1.090-0.196-1.689s0.071-1.182 0.206-1.739l-0.010 0.050zM4.396 21.644c0.309-1.282 1.299-2.273 2.558-2.576l0.024-0.005c0.507-0.124 1.090-0.196 1.689-0.196s1.182 0.071 1.739 0.206l-0.050-0.010c1.282 0.309 2.272 1.299 2.576 2.558l0.005 0.024c0.124 0.507 0.195 1.090 0.195 1.689s-0.071 1.182-0.206 1.739l0.010-0.050c-0.309 1.282-1.299 2.273-2.558 2.576l-0.024 0.005c-0.507 0.124-1.090 0.196-1.689 0.196s-1.182-0.071-1.739-0.206l0.050 0.010c-1.282-0.309-2.272-1.299-2.577-2.558l-0.005-0.024c-0.124-0.507-0.195-1.090-0.195-1.689s0.071-1.182 0.206-1.739l-0.010 0.050zM19.063 6.978c0.309-1.282 1.299-2.272 2.558-2.576l0.024-0.005c0.507-0.124 1.090-0.195 1.689-0.195s1.182 0.071 1.739 0.206l-0.050-0.010c1.282 0.309 2.273 1.299 2.576 2.558l0.005 0.024c0.124 0.507 0.196 1.090 0.196 1.689s-0.071 1.182-0.206 1.739l0.010-0.050c-0.309 1.282-1.299 2.272-2.558 2.576l-0.024 0.005c-0.507 0.124-1.090 0.195-1.689 0.195s-1.182-0.071-1.739-0.206l0.050 0.010c-1.282-0.309-2.273-1.299-2.576-2.558l-0.005-0.024c-0.124-0.507-0.196-1.090-0.196-1.689s0.071-1.182 0.206-1.739l-0.010 0.050zM19.063 21.644c0.308-1.282 1.299-2.273 2.558-2.576l0.024-0.005c0.507-0.124 1.090-0.196 1.689-0.196s1.182 0.071 1.739 0.206l-0.050-0.010c1.28 0.3 2.281 1.301 2.581 2.581 0.124 0.507 0.196 1.090 0.196 1.689s-0.071 1.182-0.206 1.739l0.010-0.050c-0.308 1.282-1.299 2.273-2.558 2.576l-0.024 0.005c-0.507 0.124-1.090 0.196-1.689 0.196s-1.182-0.071-1.739-0.206l0.050 0.010c-1.282-0.308-2.273-1.299-2.576-2.558l-0.005-0.024c-0.124-0.507-0.196-1.090-0.196-1.689s0.071-1.182 0.206-1.739l-0.010 0.050z"></path>
</symbol>

<symbol id="icon-error" viewBox="0 0 32 32">
<path d="M24.912 13.6h-14.312c-0.18 0.001-0.337 0.122-0.384 0.296l-1.6 5.72-0.576-9.848c-0.006-0.059 0.014-0.118 0.056-0.16s0.1-0.066 0.16-0.064h2.944c0.157 0.001 0.305 0.075 0.4 0.2l0.976 1.256c0.075 0.096 0.19 0.153 0.312 0.152h8.712v1.2c0 0.221 0.179 0.4 0.4 0.4s0.4-0.179 0.4-0.4v-1.6c0.002-0.107-0.039-0.211-0.114-0.288s-0.178-0.12-0.286-0.12h-8.96l-0.848-1.096c-0.24-0.307-0.603-0.494-0.992-0.512h-2.944c-0.282 0.005-0.55 0.123-0.744 0.328-0.19 0.203-0.289 0.475-0.272 0.752l0.76 12.184c0.010 0.085 0.037 0.166 0.080 0.24 0.075 0.102 0.194 0.161 0.32 0.16h13.528c0.34-0 0.669-0.114 0.938-0.322s0.459-0.501 0.543-0.83l0.592-2.312c0.058-0.221-0.075-0.447-0.296-0.504s-0.446 0.075-0.504 0.296l-0.608 2.32c-0.043 0.156-0.136 0.295-0.264 0.394s-0.286 0.155-0.448 0.157h-12.952l1.976-7.2h13.488l-0.544 2.064c-0.055 0.221 0.079 0.445 0.3 0.5s0.445-0.079 0.5-0.3l0.672-2.568c0.032-0.12 0.007-0.248-0.068-0.346s-0.192-0.157-0.316-0.158z"></path>
<path d="M16.12 19.304c-0.076 0.075-0.118 0.177-0.118 0.284s0.043 0.209 0.118 0.284c0.073 0.077 0.174 0.121 0.28 0.121s0.207-0.044 0.28-0.121c0.138-0.138 0.325-0.215 0.52-0.215s0.382 0.078 0.52 0.215c0.073 0.077 0.174 0.121 0.28 0.121s0.207-0.044 0.28-0.121c0.076-0.075 0.118-0.177 0.118-0.284s-0.043-0.209-0.118-0.284c-0.286-0.288-0.674-0.45-1.080-0.45s-0.794 0.162-1.080 0.45z"></path>
<path d="M14 16.8c-0.221 0-0.4 0.179-0.4 0.4s0.179 0.4 0.4 0.4h0.8c0.221 0 0.4-0.179 0.4-0.4s-0.179-0.4-0.4-0.4z"></path>
<path d="M19.6 16.8c-0.221 0-0.4 0.179-0.4 0.4s0.179 0.4 0.4 0.4h0.8c0.221 0 0.4-0.179 0.4-0.4s-0.179-0.4-0.4-0.4z"></path>
<path d="M16 9.040c-0.032 0.155 0.024 0.314 0.144 0.416 0.071 0.056 0.158 0.087 0.248 0.088 0.058 0.012 0.118 0.012 0.176 0l2.144-1.080c0.673 0.21 1.375 0.316 2.080 0.312 2.688 0 4.8-1.408 4.8-3.2 0-1.48-1.416-2.72-3.528-3.104v-0c-0.221-0.040-0.432 0.107-0.472 0.328s0.107 0.432 0.328 0.472c1.696 0.248 2.88 1.2 2.88 2.256 0 1.304-1.832 2.4-4 2.4-0.674 0.002-1.345-0.106-1.984-0.32-0.097-0.044-0.207-0.044-0.304 0l-1.512 0.8 0.344-1.4c0.033-0.127-0-0.262-0.088-0.36-0.286-0.303-0.449-0.703-0.456-1.12 0-1.072 1.248-2.048 2.96-2.328 0.22-0.037 0.37-0.244 0.336-0.464-0.037-0.22-0.244-0.37-0.464-0.336-2.136 0.352-3.632 1.6-3.632 3.12 0.006 0.532 0.189 1.047 0.52 1.464z"></path>
<path d="M19.92 5.208l0.312 0.32-0.312 0.312c-0.159 0.159-0.159 0.417 0 0.576 0.157 0.148 0.403 0.148 0.56 0l0.32-0.32 0.32 0.32c0.157 0.148 0.403 0.148 0.56 0 0.159-0.159 0.159-0.417 0-0.576l-0.312-0.312 0.312-0.32c0.076-0.075 0.118-0.177 0.118-0.284s-0.043-0.209-0.118-0.284c-0.073-0.077-0.174-0.121-0.28-0.121s-0.207 0.044-0.28 0.121l-0.32 0.32-0.32-0.32c-0.073-0.077-0.174-0.121-0.28-0.121s-0.207 0.044-0.28 0.121c-0.076 0.075-0.118 0.177-0.118 0.284s0.043 0.209 0.118 0.284z"></path>
</symbol>

<symbol id="icon-logout" viewBox="0 0 32 32">
<path stroke-linejoin="round" stroke-linecap="round" stroke-miterlimit="4" stroke-width="1.5" d="M11.867 10.080c0.413-4.8 2.88-6.76 8.28-6.76h0.173c5.96 0 8.347 2.387 8.347 8.347v8.693c0 5.96-2.387 8.347-8.347 8.347h-0.173c-5.36 0-7.827-1.934-8.267-6.654M2.667 16h17.173"></path>
<path stroke-linejoin="round" stroke-linecap="round" stroke-miterlimit="4" stroke-width="1.5" d="M16.867 11.533l4.466 4.467-4.466 4.467"></path>
</symbol>
<symbol id="icon-menu" viewBox="0 0 32 32">
<path stroke-linejoin="round" stroke-linecap="round" stroke-miterlimit="4" stroke-width="2.5" d="M4 16h24"></path>
<path stroke-linejoin="round" stroke-linecap="round" stroke-miterlimit="4" stroke-width="2.5" d="M4 8h24"></path>
<path stroke-linejoin="round" stroke-linecap="round" stroke-miterlimit="4" stroke-width="2.5" d="M4 24h24"></path>
</symbol>
</defs>
</svg>
